<?xml version="1.0" standalone="no"?>
<!DOCTYPE svg PUBLIC "-//W3C//DTD SVG 20010904//EN"
 "http://www.w3.org/TR/2001/REC-SVG-20010904/DTD/svg10.dtd">
<svg version="1.0" xmlns="http://www.w3.org/2000/svg"
 width="400.000000pt" height="400.000000pt" viewBox="0 0 400.000000 400.000000"
 preserveAspectRatio="xMidYMid meet">

<g transform="translate(0.000000,400.000000) scale(0.100000,-0.100000)"
fill="#000000" stroke="none">
<path d="M10 2000 l0 -2000 1995 0 1995 0 0 2000 0 2000 -1995 0 -1995 0 0
-2000z m2004 670 c84 -14 177 -61 242 -122 93 -88 132 -172 143 -306 l6 -84
181 259 181 258 62 3 c38 2 62 -1 60 -7 -2 -5 -206 -300 -454 -655 l-450 -646
-62 0 c-35 0 -63 2 -63 5 0 3 58 89 130 190 71 102 128 185 127 185 -1 0 -24
-7 -51 -15 -35 -11 -97 -15 -213 -15 l-163 0 0 -185 0 -185 -150 0 -150 0 0
665 0 665 283 0 c155 0 308 -4 341 -10z"/>
<path d="M1690 2201 l0 -231 125 0 c138 0 164 7 222 63 101 96 75 299 -47 367
-40 21 -60 25 -172 28 l-128 4 0 -231z"/>
</g>
</svg>
